# xmcd
#
# Track frame offsets:
# 150
# 10765
# 18945
# 30910
# 58880
# 75365
# 86650
# 101650
# 123525
# 136930
# 147395
# 164745
#
# Disc length: 2315 seconds
#
# Revision: 1
# Processed by: cddbd v1.5.1PL0 Copyright (c) Steve Scherf et al.
# Submitted via: CedeCatalogueitor 2.6.0.6 http://personales.ya.com/cdcatalogueitor
#
DISCID=9609090c
DTITLE=Grupo Tradición - Folklore De Castilla - La Mancha
DYEAR=1994
DGENRE=
TTITLE0=Manchegas De Albacete
TTITLE1=Jota Del Ballestero
TTITLE2=Seguidilla Jota Del Bonillo
TTITLE3=Manchegas De Casas Ibañez
TTITLE4=Seguidilla Jota De San Pedro
TTITLE5=Danza Del Paloteo
TTITLE6=Pardicas
TTITLE7=Seguidilla Jota De Villavaliente
TTITLE8=Malagueñas de Pedro Andres
TTITLE9=Jota De Bienservida
TTITLE10=Danza De Los Garrotes
TTITLE11=Fandango De Bienservida
EXTD=
EXTT0=
EXTT1=
EXTT2=
EXTT3=
EXTT4=
EXTT5=
EXTT6=
EXTT7=
EXTT8=
EXTT9=
EXTT10=
EXTT11=
PLAYORDER=
